<!--?xml version="1.0" standalone="no"?-->
              <svg id="sw-js-blob-svg" viewBox="0 0 100 100" xmlns="http://www.w3.org/2000/svg" version="1.1">
                    <defs> 
                        <linearGradient id="sw-gradient" x1="0" x2="1" y1="1" y2="0">
                            <stop id="stop1" stop-color="rgba(102, 241, 246, 1)" offset="0%"></stop>
                            <stop id="stop2" stop-color="rgba(12, 12, 29, 1)" offset="100%"></stop>
                        </linearGradient>
                    </defs>
                <path fill="url(#sw-gradient)" d="M20.2,-29.1C26.5,-23.2,32.2,-17.8,34.8,-11C37.3,-4.3,36.7,3.7,33.7,10.4C30.8,17.1,25.6,22.6,19.6,26.7C13.6,30.9,6.8,33.7,-0.5,34.4C-7.7,35,-15.4,33.5,-20.7,29.1C-26,24.7,-28.9,17.5,-31.5,10.1C-34,2.7,-36.3,-4.9,-35.3,-12.6C-34.4,-20.3,-30.3,-28.2,-23.9,-34C-17.4,-39.9,-8.7,-43.8,-0.9,-42.6C6.9,-41.4,13.9,-35,20.2,-29.1Z" width="100%" height="100%" transform="translate(50 50)" stroke-width="0" style="transition: all 0.3s ease 0s;" stroke="url(#sw-gradient)"></path>
              </svg>