<svg id="visual" viewBox="0 0 1366 768" width="1366" height="768" xmlns="http://www.w3.org/2000/svg" xmlns:xlink="http://www.w3.org/1999/xlink" version="1.1"><rect x="0" y="0" width="1366" height="768" fill="#0c0c1d"></rect><path d="M0 597L22.8 612.3C45.7 627.7 91.3 658.3 136.8 670.8C182.3 683.3 227.7 677.7 273.2 661C318.7 644.3 364.3 616.7 409.8 594C455.3 571.3 500.7 553.7 546.2 558.7C591.7 563.7 637.3 591.3 683 614.5C728.7 637.7 774.3 656.3 819.8 642.8C865.3 629.3 910.7 583.7 956.2 587.7C1001.7 591.7 1047.3 645.3 1092.8 648.7C1138.3 652 1183.7 605 1229.2 564.2C1274.7 523.3 1320.3 488.7 1343.2 471.3L1366 454L1366 769L1343.2 769C1320.3 769 1274.7 769 1229.2 769C1183.7 769 1138.3 769 1092.8 769C1047.3 769 1001.7 769 956.2 769C910.7 769 865.3 769 819.8 769C774.3 769 728.7 769 683 769C637.3 769 591.7 769 546.2 769C500.7 769 455.3 769 409.8 769C364.3 769 318.7 769 273.2 769C227.7 769 182.3 769 136.8 769C91.3 769 45.7 769 22.8 769L0 769Z" fill="#66f1f6" stroke-linecap="round" stroke-linejoin="miter"></path></svg>